<svg xmlns="http://www.w3.org/2000/svg" version="1.1" width="470.0"
     height="460.0">
    <defs/>
    <g id="id14:id14" transform="matrix(1.25,0,0,1.25,0.0,0.0)">
        <g transform="translate(0.000000,368.000000) scale(0.040000,-0.040000)" fill="#30b08f" stroke="none">
            <path d="M450 8783 c-1 -4 -2 -477 -3 -1050 l-2 -1043 402 -2 403 -3 2 640 3 640 638 0 637 0 0 405 0 405 -942 0 c-519 0 -987 4 -1040 8 -54 5 -98 5 -98 0z"/>
            <path d="M4285 8779 c-5 -6 -8 -191 -9 -410 l-1 -399 632 0 631 0 20 -32 c18 -29 19 -41 12 -110 -5 -42 -9 -315 -9 -607 l1 -531 404 0 404 0 0 1043 0 1042 -1013 0 c-556 0 -1024 4 -1038 8 -18 6 -29 5 -34 -4z"/>
            <path d="M3430 3040 l0 -2750 2750 -2 2750 -3 0 2753 0 2752 -2750 0 -2750 0 0 -2750z m4664 1914 c9 -8 16 -21 16 -27 0 -7 0 -862 0 -1902 0 -1530 -3 -1892 -13 -1902 -11 -11 -373 -13 -1906 -13 -1720 0 -1894 2 -1917 16 l-24 16 0 1907 c0 1049 3 1911 7 1914 3 4 865 7 1914 7 1721 0 1909 -2 1923 -16z"/>
            <path d="M4825 4618 c-22 -6 -59 -20 -83 -31 -46 -22 -152 -128 -152 -153 0 -8 -4 -14 -10 -14 -5 0 -10 -11 -10 -24 0 -14 -4 -28 -10 -31 -7 -4 -10 -456 -10 -1323 l0 -1317 31 -60 c33 -67 102 -137 157 -161 20 -8 45 -20 54 -25 25 -13 2768 -12 2768 1 0 6 14 10 30 10 17 0 30 5 30 10 0 6 8 10 18 10 21 1 46 20 55 43 3 9 12 17 20 17 14 0 57 41 57 54 0 4 9 19 20 33 11 14 20 40 20 57 0 18 5 37 10 42 12 12 8 2568 -4 2624 -4 19 -10 42 -14 50 -3 8 -6 20 -7 26 -1 13 -59 72 -109 108 -24 18 -69 36 -115 47 -71 17 -157 18 -1391 17 -831 0 -1330 -4 -1355 -10z m2660 -340 c22 -26 25 -37 19 -62 -4 -17 -9 -564 -10 -1215 -2 -974 -5 -1186 -16 -1197 -11 -11 -235 -14 -1282 -14 -1178 -1 -1270 0 -1287 16 -18 17 -19 58 -19 1254 0 680 3 1240 7 1243 3 4 581 7 1284 7 l1277 0 27 -32z"/>
            <path d="M6579 2993 c-15 -29 -16 -31 -71 -99 -18 -23 -51 -65 -73 -94 -22 -29 -73 -93 -112 -144 -40 -50 -73 -96 -73 -102 0 -6 -12 -21 -26 -35 -14 -13 -42 -46 -62 -74 -53 -74 -84 -105 -104 -105 -19 0 -88 62 -88 78 0 5 -10 20 -22 34 -43 47 -93 111 -112 142 -10 17 -25 35 -33 41 -8 6 -13 15 -11 20 1 6 -17 28 -40 51 -23 22 -39 44 -35 48 6 5 -71 86 -83 86 -4 0 -124 -157 -199 -260 -27 -38 -70 -94 -95 -126 -25 -31 -51 -66 -59 -78 -8 -11 -31 -39 -51 -61 -36 -39 -100 -128 -100 -139 0 -3 477 -6 1060 -6 583 0 1060 4 1060 8 0 11 -61 96 -72 100 -4 2 -8 9 -8 16 0 7 -13 25 -28 42 -16 16 -62 74 -102 129 -77 104 -180 235 -212 270 -35 38 -98 124 -98 134 0 5 -8 16 -18 23 -9 7 -25 25 -35 40 -17 27 -73 88 -80 88 -2 0 -10 -12 -18 -27z"/>
            <path d="M449 5363 c0 -5 -1 -477 -2 -1050 l-2 -1043 1043 0 1042 0 0 410 0 411 -614 -1 c-582 -2 -616 -1 -640 17 l-25 18 -1 623 0 622 -400 0 c-220 0 -400 -3 -401 -7z"/>
        </g>
    </g>
</svg>
